<?xml version="1.0" encoding="utf-8"?><svg xmlns="http://www.w3.org/2000/svg" xmlns:xlink="http://www.w3.org/1999/xlink" style="display:none;" fill="none"><symbol viewBox="0 0 100 100" id="$" xmlns="http://www.w3.org/2000/svg"><path d="M99.11 49.555c0 27.323-22.232 49.556-49.555 49.556C22.233 99.111 0 76.878 0 49.555 0 22.233 22.233 0 49.555 0c27.323 0 49.556 22.233 49.556 49.555zm-95.54 0c0 25.356 20.63 45.986 45.985 45.986 25.356 0 45.986-20.63 45.986-45.986C95.54 24.2 74.91 3.57 49.555 3.57 24.2 3.57 3.57 24.2 3.57 49.555z"/><path d="M40.012 40.802a3.952 3.952 0 0 0 3.008 3.84l3.362.844v-8.65h-2.394a3.971 3.971 0 0 0-3.966 3.966h-.01zM52.73 62.275h2.393a3.971 3.971 0 0 0 3.966-3.966 3.952 3.952 0 0 0-3.008-3.841l-3.362-.843v8.65h.01z"/><path d="M49.556 9.232c-22.233 0-40.333 18.09-40.333 40.334 0 22.243 18.09 40.333 40.333 40.333 22.244 0 40.334-18.09 40.334-40.333 0-22.244-18.09-40.334-40.334-40.334zm15.905 33.964H59.1v-3.185a3.192 3.192 0 0 0-3.185-3.186H52.73v10.243l4.902 1.228a10.31 10.31 0 0 1 7.817 10.013c0 5.693-4.632 10.325-10.325 10.325H52.73v8.057h-6.36v-8.057h-3.185c-5.267 0-9.545-4.278-9.545-9.544v-3.185h6.36v3.185a3.192 3.192 0 0 0 3.185 3.185h3.185V52.032l-4.902-1.228a10.31 10.31 0 0 1-7.817-10.013c0-5.693 4.632-10.325 10.325-10.325h2.394V22.41h6.36v8.056h3.185c5.267 0 9.545 4.278 9.545 9.545v3.185z"/></symbol><symbol viewBox="0 0 101 101" id="Crown" xmlns="http://www.w3.org/2000/svg"><path d="M14.828 85.452c-19.49-19.49-19.49-51.199 0-70.688 19.49-19.49 51.198-19.49 70.688 0 19.49 19.49 19.49 51.198 0 70.688-19.49 19.489-51.198 19.489-70.688 0Zm68.333-68.333c-18.191-18.19-47.786-18.19-65.972 0-18.192 18.191-18.192 47.786 0 65.972 18.19 18.191 47.785 18.191 65.972 0 18.191-18.19 18.191-47.785 0-65.972Z"/><path d="M83.7 39.505a1.643 1.643 0 0 1-.398-.645c-1.73-5.119-4.555-9.654-8.394-13.494a34.663 34.663 0 0 0-13.494-8.394 1.667 1.667 0 0 1-1.133-1.578V3.246a1.664 1.664 0 0 1 2.067-1.616 49.872 49.872 0 0 1 23.158 13.134 49.929 49.929 0 0 1 13.13 23.158c.122.498.009 1.024-.304 1.431a1.66 1.66 0 0 1-1.313.64H84.87c-.455 0-.872-.185-1.18-.493l.01.005ZM77.264 23.01a37.979 37.979 0 0 1 8.792 13.65h8.787A46.608 46.608 0 0 0 83.155 17.12 46.562 46.562 0 0 0 63.618 5.436v8.787a37.852 37.852 0 0 1 13.65 8.792l-.004-.004ZM14.827 85.452A49.913 49.913 0 0 1 1.693 62.293a1.673 1.673 0 0 1 .304-1.426 1.66 1.66 0 0 1 1.312-.64h12.148c.716 0 1.351.455 1.579 1.133 1.73 5.118 4.554 9.654 8.394 13.494a34.664 34.664 0 0 0 13.494 8.394 1.663 1.663 0 0 1 1.132 1.578v12.148c0 .512-.237.995-.64 1.313a1.671 1.671 0 0 1-1.43.303 49.929 49.929 0 0 1-23.16-13.129v-.01ZM5.494 63.554a46.608 46.608 0 0 0 11.689 19.542 46.608 46.608 0 0 0 19.541 11.688v-8.787a37.905 37.905 0 0 1-13.65-8.788 37.98 37.98 0 0 1-8.792-13.65H5.494v-.005ZM60.777 98.145a1.663 1.663 0 0 1-.488-1.18V84.817c0-.716.455-1.351 1.133-1.579 5.119-1.73 9.655-4.555 13.494-8.394A34.642 34.642 0 0 0 83.31 61.35a1.663 1.663 0 0 1 1.578-1.133h12.148c.512 0 .995.238 1.313.64.318.403.427.934.303 1.427A49.978 49.978 0 0 1 85.52 85.442 49.873 49.873 0 0 1 62.36 98.576a1.673 1.673 0 0 1-1.426-.303c-.052-.048-.105-.09-.152-.138l-.005.01Zm2.844-12.153v8.787a46.607 46.607 0 0 0 19.542-11.688A46.657 46.657 0 0 0 94.85 63.55h-8.787c-1.92 5.147-4.873 9.73-8.792 13.65-3.916 3.915-8.504 6.873-13.65 8.792ZM2.13 39.505a1.667 1.667 0 0 1-.436-1.583 49.872 49.872 0 0 1 13.134-23.158A49.936 49.936 0 0 1 37.986 1.63a1.673 1.673 0 0 1 1.427.303c.402.318.64.801.64 1.313v12.148c0 .716-.456 1.35-1.133 1.578-5.12 1.73-9.655 4.555-13.494 8.394a34.664 34.664 0 0 0-8.394 13.494 1.663 1.663 0 0 1-1.579 1.133H3.305c-.445 0-.872-.175-1.18-.483l.005-.005Zm34.59-34.07A46.609 46.609 0 0 0 17.18 17.125 46.658 46.658 0 0 0 5.49 36.666h8.788c1.92-5.147 4.872-9.73 8.792-13.65a37.981 37.981 0 0 1 13.65-8.793V5.436Z"/><path d="M77.267 23.01c-14.94-14.939-39.254-14.944-54.194 0-14.944 14.945-14.94 39.255 0 54.195 14.94 14.94 39.25 14.944 54.195 0 14.944-14.945 14.94-39.255 0-54.194Z"/><path fill="#110A1D" d="m63.994 63.785-27.527.183a2.1 2.1 0 0 0-2.086 2.113l.006.981a2.1 2.1 0 0 0 2.114 2.086l27.528-.182a2.1 2.1 0 0 0 2.085-2.114l-.006-.981a2.1 2.1 0 0 0-2.114-2.086ZM40.217 47.169c-.298 0-.602-.066-.877-.2l-2.147-1.037a1.984 1.984 0 0 1-.971-2.522l.986-2.455a1.977 1.977 0 0 1 2.815-.98l2.56 1.459a1.985 1.985 0 0 1 .65 2.844l-1.404 2.033c-.365.53-.972.853-1.617.853l.005.005ZM60.032 47.036a1.986 1.986 0 0 1-1.626-.834l-1.388-1.957c-.323-.45-.436-1.02-.323-1.56.114-.54.455-1.014.934-1.294l2.64-1.55c.299-.175.64-.27.986-.274a1.983 1.983 0 0 1 1.844 1.218l.995 2.384a1.991 1.991 0 0 1-.938 2.536l-2.247 1.123a2 2 0 0 1-.872.208h-.005Z"/><path fill="#110A1D" d="M38.055 62.128a2.86 2.86 0 0 1-2.707-1.887l-4.592-12.64a4.877 4.877 0 0 1-2.716.435 4.85 4.85 0 0 1-4.223-4.773 4.855 4.855 0 0 1 4.815-4.881 4.848 4.848 0 0 1 4.877 4.815 4.79 4.79 0 0 1-.322 1.763 5.304 5.304 0 0 1-.436.868l8.735 4.227 6.683-9.683a4.893 4.893 0 0 1-2.052-1.654 4.82 4.82 0 0 1-.896-2.773 4.855 4.855 0 0 1 5.176-4.872 4.858 4.858 0 0 1 4.503 4.474 4.833 4.833 0 0 1-.863 3.143 4.892 4.892 0 0 1-1.237 1.223 4.397 4.397 0 0 1-.801.44l6.801 9.584 8.594-4.299a5.01 5.01 0 0 1-.384-.967 4.713 4.713 0 0 1-.176-1.265 4.844 4.844 0 1 1 9.688-.062 4.853 4.853 0 0 1-4.507 4.868l-.304.01a4.96 4.96 0 0 1-1.445-.21 4.705 4.705 0 0 1-.872-.364L65.08 60.042a2.86 2.86 0 0 1-2.682 1.92l-24.343.16v.006Z"/></symbol><symbol viewBox="0 0 16 16" id="Facebook" xmlns="http://www.w3.org/2000/svg"><path d="M10.073 3.547h1.254v-2.12A17.407 17.407 0 0 0 9.5 1.334c-1.813 0-3.053 1.106-3.053 3.133v1.747H4.4v2.373h2.047v6.08H8.9v-6.08h2.04l.307-2.373H8.9V4.7c0-.7.187-1.153 1.173-1.153Z"/></symbol><symbol viewBox="0 0 16 16" id="Instagram" xmlns="http://www.w3.org/2000/svg"><path d="M8 1.5c1.766 0 1.986.006 2.68.039.691.032 1.163.141 1.578.302.429.165.79.389 1.151.75.33.325.587.718.75 1.151.16.415.27.886.302 1.579.03.693.039.913.039 2.679 0 1.766-.007 1.986-.039 2.68-.033.691-.142 1.163-.302 1.578a3.174 3.174 0 0 1-.75 1.151c-.325.33-.718.586-1.152.75-.414.16-.886.27-1.578.302-.693.03-.913.039-2.679.039-1.766 0-1.986-.007-2.68-.039-.692-.033-1.163-.142-1.578-.302a3.178 3.178 0 0 1-1.151-.75 3.187 3.187 0 0 1-.75-1.152c-.16-.414-.27-.886-.302-1.578C1.509 9.986 1.5 9.766 1.5 8c0-1.766.006-1.986.039-2.68.032-.692.141-1.163.302-1.578.163-.434.419-.827.75-1.151.324-.331.718-.587 1.151-.75.415-.16.886-.27 1.579-.302.693-.03.913-.039 2.679-.039Zm0 3.25a3.25 3.25 0 1 0 0 6.5 3.25 3.25 0 0 0 0-6.5Zm4.225-.162a.812.812 0 1 0-1.625 0 .812.812 0 0 0 1.625 0ZM8 6.05a1.95 1.95 0 1 1 0 3.9 1.95 1.95 0 0 1 0-3.9Z"/></symbol><symbol viewBox="0 0 16 16" id="LinkedIn" xmlns="http://www.w3.org/2000/svg"><path d="M1.875 2.752c0-.484.403-.877.9-.877h10.45c.497 0 .9.393.9.877v10.496a.889.889 0 0 1-.9.877H2.775a.889.889 0 0 1-.9-.877V2.752Zm3.784 9.378V6.598H3.821v5.532H5.66Zm-.918-6.288c.64 0 1.04-.424 1.04-.955-.012-.543-.399-.956-1.028-.956-.63 0-1.04.414-1.04.956 0 .531.398.955 1.015.955h.013Zm3.757 6.288V9.04c0-.165.013-.33.062-.448.132-.33.435-.672.943-.672.665 0 .93.506.93 1.25v2.96h1.84V8.957c0-1.7-.907-2.49-2.117-2.49-.975 0-1.413.536-1.658.914V7.4h-.012l.012-.02v-.782H6.661c.023.52 0 5.532 0 5.532h1.837Z"/></symbol><symbol viewBox="0 0 100 100" id="M" xmlns="http://www.w3.org/2000/svg"><path d="M49.545 99.123C22.222 99.123 0 76.891 0 49.578 0 22.266 22.233.033 49.545.033S99.09 22.266 99.09 49.578c0 27.313-22.233 49.545-49.545 49.545Zm0-95.79c-25.501 0-46.246 20.744-46.246 46.245 0 25.501 20.745 46.246 46.246 46.246s46.246-20.745 46.246-46.246c0-25.5-20.745-46.245-46.246-46.245Z"/><path d="M81.873 14.224 66.535 29.562l3.017 3.018 15.339-15.338-3.018-3.018ZM29.076 67.023 13.738 82.361l3.018 3.018L32.094 70.04l-3.018-3.018ZM70.017 67.02 67 70.038l15.338 15.338 3.018-3.017L70.017 67.02ZM16.767 13.76l-3.017 3.017 15.33 15.33 3.018-3.017-15.33-15.33ZM61.641 50.91c1-.998 1-2.612 0-3.6l-2.123-2.114c-1-.999-2.613-.999-3.602 0l-1.145 1.145-1.322-1.322c-.999-.999-2.612-.999-3.601 0l-1.145 1.156-1.322-1.333c-1-.999-2.612-.999-3.601 0l-7.026 7.026c-.052.052-.052.136 0 .198a2.425 2.425 0 0 0 3.414 0l4.528-4.528a1.25 1.25 0 0 1 1.77 0l.332.333a.15.15 0 0 1 0 .219l-3.778 3.778c-.052.052-.052.136 0 .198a2.425 2.425 0 0 0 3.414 0l4.34-4.34a1.25 1.25 0 0 1 1.77 0l.333.333c.052.052.052.135 0 .198L49.234 51.9c-.052.052-.052.135 0 .197a2.425 2.425 0 0 0 3.414 0l4.194-4.194a1.25 1.25 0 0 1 1.77 0l.718.718a.735.735 0 0 1 0 1.03l-.114.115a.735.735 0 0 1-1.03 0l-.927-.927c-.052-.052-.135-.052-.198 0l-1.603 1.603c-.052.052-.052.136 0 .198l1.447 1.447c1 1 2.613 1 3.601 0l1.145-1.145-.01-.031Z"/><path d="M49.546 11.576c-20.984 0-37.991 17.008-37.991 37.992 0 20.984 17.007 37.991 37.991 37.991 20.984 0 37.992-17.007 37.992-37.991 0-20.984-17.008-37.992-37.992-37.992Zm1.551 11.73c6.1.355 11.637 2.79 15.925 6.6l-5.485 5.485a18.517 18.517 0 0 0-10.44-4.33v-7.754Zm-3.091 0v7.755a18.446 18.446 0 0 0-10.44 4.33l-5.486-5.485a26.214 26.214 0 0 1 15.926-6.6Zm-18.111 8.786 5.485 5.485a18.517 18.517 0 0 0-4.33 10.44h-7.755a26.215 26.215 0 0 1 6.6-15.925Zm-6.6 19.016h7.755a18.446 18.446 0 0 0 4.33 10.44l-5.485 5.486a26.214 26.214 0 0 1-6.6-15.926Zm24.71 24.71A26.214 26.214 0 0 1 32.08 69.22l5.486-5.485a18.517 18.517 0 0 0 10.44 4.33v7.755ZM33.58 49.558c0-8.817 7.151-15.967 15.967-15.967s15.967 7.15 15.967 15.966c0 8.817-7.15 15.967-15.967 15.967-8.816 0-15.967-7.15-15.967-15.967Zm17.518 26.26v-7.754a18.446 18.446 0 0 0 10.44-4.33l5.485 5.485a26.214 26.214 0 0 1-15.925 6.6Zm18.11-8.784-5.484-5.486a18.517 18.517 0 0 0 4.33-10.44h7.754a26.214 26.214 0 0 1-6.6 15.926Zm-1.154-19.017a18.445 18.445 0 0 0-4.33-10.44l5.485-5.485a26.215 26.215 0 0 1 6.6 15.925h-7.755Z"/></symbol><symbol viewBox="0 0 100 100" id="Shield" xmlns="http://www.w3.org/2000/svg"><path d="M49.983 100c-12.699 0-25.387-4.83-35.057-14.5-19.329-19.328-19.329-50.772 0-70.101C24.294 6.03 36.743.879 49.983.879c13.24 0 25.688 5.152 35.056 14.52 19.329 19.329 19.329 50.773 0 70.102C75.379 95.16 62.68 100 49.983 100ZM17.529 82.899c17.892 17.892 47.005 17.892 64.897 0 17.893-17.893 17.893-47.006 0-64.898-8.67-8.67-20.193-13.438-32.454-13.438S26.188 9.341 17.518 18.001c-17.892 17.892-17.892 47.005 0 64.898h.01Z"/><path d="M49.327 68.993c.177.427.593.676 1.03.676a1.3 1.3 0 0 0 .438-.083 25.699 25.699 0 0 0 9.2-6.568 1.117 1.117 0 0 0-.093-1.571 1.117 1.117 0 0 0-1.572.093 23.265 23.265 0 0 1-8.4 5.996c-.561.239-.832.895-.593 1.457h-.01Z"/><path d="m68.873 33.312-18.486-7.39a1.15 1.15 0 0 0-.833 0l-18.485 7.39a1.096 1.096 0 0 0-.698 1.03v13.24c.021 12.22 7.744 23.264 19.215 27.469.125.041.25.062.385.062s.26-.02.385-.062c11.47-4.216 19.193-15.249 19.214-27.469v-13.24c0-.457-.27-.863-.697-1.03Zm-1.53 14.27C67.322 58.7 60.348 68.826 49.98 72.813 39.614 68.826 32.63 58.699 32.61 47.583v-12.48l17.372-6.943 17.362 6.942v12.48Z"/><path d="M42.258 35.05a1.103 1.103 0 0 0-.853 0l-4.403 1.76a1.095 1.095 0 0 0-.697 1.03v4.694a1.115 1.115 0 0 0 2.227 0V38.6l3.695-1.478c.281-.115.49-.323.614-.604.115-.27.115-.572 0-.854a1.142 1.142 0 0 0-.593-.614h.01Z"/><path d="M78.126 22.3C70.61 14.774 60.608 10.642 49.97 10.642c-10.638 0-20.63 4.143-28.156 11.658-15.519 15.519-15.519 40.78 0 56.31 7.765 7.765 17.955 11.637 28.156 11.637 10.2 0 20.39-3.882 28.155-11.636 15.52-15.52 15.52-40.782 0-56.311ZM72.62 47.582c.031 14.125-8.993 26.48-22.452 30.758a.642.642 0 0 1-.395 0C36.314 74.062 27.29 61.707 27.32 47.582V31.96c0-.26.156-.5.406-.604l22.004-8.795a.611.611 0 0 1 .24-.042c.083 0 .166.01.239.042l22.004 8.806c.25.093.406.333.406.603v15.624-.01Z"/></symbol><symbol viewBox="0 0 100 100" id="Soccer" xmlns="http://www.w3.org/2000/svg"><path d="M49.877 99.932C22.554 99.932.332 77.7.332 50.387.332 23.075 22.565.842 49.877.842s49.545 22.233 49.545 49.545c0 27.313-22.233 49.545-49.545 49.545Zm0-95.79C24.376 4.142 3.63 24.886 3.63 50.387c0 25.501 20.745 46.246 46.246 46.246s46.245-20.745 46.245-46.246c0-25.5-20.744-46.245-46.245-46.245Z"/><path d="M65.951 19.453c-.25 0-.5-.052-.728-.167a34.317 34.317 0 0 0-15.343-3.58 34.316 34.316 0 0 0-15.342 3.58 1.647 1.647 0 0 1-1.894-.312l-8.515-8.514a1.642 1.642 0 0 1-.468-1.374c.062-.51.354-.958.791-1.218A49.457 49.457 0 0 1 49.891.842a49.557 49.557 0 0 1 25.438 7.026c.438.26.729.708.792 1.218.062.51-.115 1.01-.469 1.374l-8.514 8.514a1.68 1.68 0 0 1-1.176.479h-.01Zm-16.07-7.047a37.64 37.64 0 0 1 15.727 3.404l6.162-6.162a46.153 46.153 0 0 0-21.89-5.506 46.152 46.152 0 0 0-21.889 5.506l6.162 6.162a37.64 37.64 0 0 1 15.727-3.404ZM49.879 99.932a49.556 49.556 0 0 1-25.44-7.025 1.646 1.646 0 0 1-.79-1.218c-.063-.51.114-1.01.468-1.374l8.514-8.514c.5-.5 1.27-.625 1.895-.313a34.317 34.317 0 0 0 15.342 3.58 34.319 34.319 0 0 0 15.342-3.58 1.647 1.647 0 0 1 1.895.313l8.514 8.514c.364.364.53.864.468 1.374-.062.51-.353.957-.79 1.218a49.456 49.456 0 0 1-25.44 7.025h.022Zm-21.89-8.805a46.152 46.152 0 0 0 21.89 5.506c7.66 0 15.186-1.894 21.889-5.506l-6.162-6.162a37.642 37.642 0 0 1-15.727 3.403 37.642 37.642 0 0 1-15.728-3.403l-6.162 6.162ZM90.983 76.627c-.438 0-.854-.166-1.166-.478l-8.515-8.515a1.65 1.65 0 0 1-.312-1.894 34.317 34.317 0 0 0 3.58-15.342 34.317 34.317 0 0 0-3.58-15.343 1.644 1.644 0 0 1 .312-1.894l8.515-8.514c.364-.364.864-.531 1.374-.469.51.063.957.354 1.217.791a49.456 49.456 0 0 1 7.026 25.44 49.456 49.456 0 0 1-7.026 25.438c-.26.437-.707.729-1.217.79h-.209v-.01Zm-6.527-10.512 6.162 6.162a46.152 46.152 0 0 0 5.506-21.89c0-7.66-1.894-15.186-5.506-21.889l-6.162 6.162a37.64 37.64 0 0 1 3.404 15.727 37.64 37.64 0 0 1-3.404 15.728ZM8.773 76.628c-.073 0-.135 0-.198-.01a1.645 1.645 0 0 1-1.218-.792A49.456 49.456 0 0 1 .332 50.387 49.456 49.456 0 0 1 7.357 24.95c.26-.438.708-.729 1.218-.791.51-.063 1.01.114 1.374.468l8.514 8.514c.5.5.625 1.27.313 1.895a34.316 34.316 0 0 0-3.581 15.342 34.317 34.317 0 0 0 3.58 15.342 1.644 1.644 0 0 1-.312 1.895L9.95 76.128c-.312.312-.728.49-1.166.49l-.01.01Zm.364-48.13a46.152 46.152 0 0 0-5.506 21.89c0 7.66 1.894 15.186 5.506 21.889l6.162-6.162a37.64 37.64 0 0 1-3.403-15.728 37.64 37.64 0 0 1 3.403-15.727l-6.162-6.162Z"/><path d="M49.878 12.396c-20.942 0-37.992 17.039-37.992 37.991 0 20.953 17.04 37.992 37.992 37.992 20.953 0 37.992-17.04 37.992-37.992 0-20.952-17.04-37.991-37.992-37.991Zm21.38 25.511a24.473 24.473 0 0 1 3.247 10.013.368.368 0 0 1-.177.354 31.822 31.822 0 0 0-7.255 6.09.341.341 0 0 1-.385.103l-4.694-1.53a.36.36 0 0 1-.25-.301 32.68 32.68 0 0 0-3.591-11.055.368.368 0 0 1 .031-.385l2.904-3.996a.395.395 0 0 1 .302-.157h.083c3.102.687 6.287.916 9.451.656a.376.376 0 0 1 .354.188l-.02.02ZM59.182 53.291a.378.378 0 0 1-.083.281 24.852 24.852 0 0 1-9.076 6.579.332.332 0 0 1-.281 0 25.093 25.093 0 0 1-9.077-6.579.378.378 0 0 1-.083-.28 30.144 30.144 0 0 1 3.477-10.7.346.346 0 0 1 .239-.178 27.175 27.175 0 0 1 5.59-.583c1.883 0 3.757.198 5.589.583.104.021.187.084.24.177a30.353 30.353 0 0 1 3.476 10.7h-.01Zm-.562-25.834s.125-.104.25-.104c.042 0 .094 0 .146.031 3.83 1.52 7.255 4.018 9.92 7.213a.345.345 0 0 1 .051.386.357.357 0 0 1-.333.218 28.67 28.67 0 0 1-6.994-.78.37.37 0 0 1-.23-.167 29.502 29.502 0 0 1-2.903-6.422.345.345 0 0 1 .104-.375h-.01Zm-14-1.249a25.252 25.252 0 0 1 10.524 0c.135.031.25.135.28.27a31.904 31.904 0 0 0 3.55 8.786.382.382 0 0 1-.02.405l-2.884 3.977a.36.36 0 0 1-.364.145c-3.81-.77-7.838-.77-11.647 0a.361.361 0 0 1-.365-.145l-2.883-3.977a.38.38 0 0 1-.02-.405 31.904 31.904 0 0 0 3.549-8.785.373.373 0 0 1 .28-.271Zm-13.79 8.39c2.664-3.206 6.088-5.704 9.919-7.214a.35.35 0 0 1 .395.073c.052.052.167.177.104.375a29.279 29.279 0 0 1-2.904 6.422.37.37 0 0 1-.229.166c-2.28.542-4.632.812-6.994.781a.357.357 0 0 1-.333-.218.345.345 0 0 1 .052-.386h-.01Zm-2.322 3.31a.368.368 0 0 1 .323-.188h.031c3.175.25 6.36.031 9.451-.656a.352.352 0 0 1 .375.146l2.904 3.997a.37.37 0 0 1 .031.385 32.674 32.674 0 0 0-3.591 11.054.389.389 0 0 1-.25.302l-4.694 1.53a.379.379 0 0 1-.385-.104 31.823 31.823 0 0 0-7.255-6.09.389.389 0 0 1-.177-.353 24.423 24.423 0 0 1 3.248-10.013l-.01-.01Zm1.135 25.646c-.063.198-.24.24-.313.25-.072 0-.24 0-.354-.167A24.697 24.697 0 0 1 25.19 51.97a.356.356 0 0 1 .187-.343c.063-.031.23-.104.396.02a28.91 28.91 0 0 1 5.204 4.747.353.353 0 0 1 .083.27 28.567 28.567 0 0 1-1.426 6.902l.01-.01Zm10.283 9.503c-3.247-1.426-6.11-3.518-8.503-6.203a.376.376 0 0 1-.073-.385 31.85 31.85 0 0 0 2.29-9.191.359.359 0 0 1 .25-.313l4.642-1.509s.072-.02.114-.02a.35.35 0 0 1 .27.124 27.696 27.696 0 0 0 9.431 6.86.363.363 0 0 1 .218.333v4.881a.352.352 0 0 1-.218.334 31.831 31.831 0 0 0-8.046 5.027.35.35 0 0 1-.385.052l.01.01Zm16.373 1.03a.347.347 0 0 1-.27.292 25.032 25.032 0 0 1-12.283 0 .363.363 0 0 1-.27-.291.366.366 0 0 1 .145-.375 29.036 29.036 0 0 1 6.131-3.487.332.332 0 0 1 .281 0 29.56 29.56 0 0 1 6.13 3.487.382.382 0 0 1 .146.375h-.01Zm12.064-7.223a24.546 24.546 0 0 1-8.504 6.193.366.366 0 0 1-.385-.052 31.653 31.653 0 0 0-8.046-5.027.363.363 0 0 1-.219-.333v-4.882c0-.146.084-.28.219-.333a27.595 27.595 0 0 0 9.43-6.86.35.35 0 0 1 .27-.124c.042 0 .074 0 .115.02l4.642 1.51c.136.042.24.166.25.312a31.934 31.934 0 0 0 2.29 9.191.355.355 0 0 1-.073.385h.01Zm2.435-3.216a.356.356 0 0 1-.354.166.359.359 0 0 1-.312-.25 29.596 29.596 0 0 1-1.426-6.9c0-.094.021-.198.084-.27a29.3 29.3 0 0 1 5.204-4.747.36.36 0 0 1 .208-.073c.083 0 .146.031.187.052a.34.34 0 0 1 .188.343 24.696 24.696 0 0 1-3.789 11.668l.01.01Z"/></symbol><symbol viewBox="0 0 16 16" id="Telegram" xmlns="http://www.w3.org/2000/svg"><path d="M12.644 3.132s1.133-.442 1.038.631c-.031.442-.314 1.989-.535 3.662l-.755 4.955s-.063.726-.63.852c-.566.126-1.416-.442-1.574-.568-.126-.095-2.36-1.515-3.148-2.21-.22-.189-.472-.567.032-1.01l3.305-3.156c.378-.378.755-1.262-.819-.189L5.151 9.097s-.503.316-1.447.032l-2.047-.631s-.755-.474.535-.947c3.148-1.484 7.02-2.998 10.451-4.419Z"/></symbol><symbol viewBox="0 0 16 16" id="TikTok" xmlns="http://www.w3.org/2000/svg"><path fill-rule="evenodd" clip-rule="evenodd" d="M9.012 1.925c.373 0 .675.302.675.675a2.7 2.7 0 0 0 2.7 2.7.675.675 0 1 1 0 1.35 4.05 4.05 0 0 1-2.7-1.032V10.7a3.375 3.375 0 1 1-3.374-3.375.675.675 0 1 1 0 1.35A2.025 2.025 0 1 0 8.338 10.7V2.6c0-.373.302-.675.675-.675Z"/></symbol><symbol viewBox="0 0 100 100" id="Timer" xmlns="http://www.w3.org/2000/svg"><path d="M49.615 99.407c-12.698 0-25.386-4.83-35.056-14.5-19.329-19.328-19.329-50.772 0-70.101C23.927 5.438 36.376.286 49.615.286c13.24 0 25.689 5.152 35.057 14.52C104 34.135 104 65.579 84.672 84.908c-9.66 9.66-22.358 14.5-35.057 14.5ZM17.161 82.306c17.893 17.892 47.005 17.892 64.898 0 17.892-17.893 17.892-47.006 0-64.898C73.389 8.738 61.866 3.97 49.605 3.97S25.82 8.748 17.15 17.408C-.742 35.3-.742 64.413 17.15 82.306h.01Z"/><path d="m51.45 39.422-9.18 12.865h5.506v9.18l9.18-12.854H51.45v-9.19Z"/><path d="M49.606 32.272c-10.055 0-18.215 8.16-18.215 18.215 0 10.054 8.16 18.194 18.215 18.194 10.054 0 18.215-8.16 18.215-18.194 0-10.034-8.16-18.215-18.215-18.215Zm0 34.16c-8.827 0-15.988-7.16-15.988-15.987s7.161-15.988 15.988-15.988c8.826 0 15.988 7.161 15.988 15.988s-7.162 15.988-15.988 15.988Z"/><path d="M77.763 21.707c-7.515-7.526-17.518-11.658-28.156-11.658-10.637 0-20.63 4.143-28.155 11.658-15.52 15.519-15.52 40.78 0 56.31 7.765 7.765 17.955 11.648 28.155 11.648 10.2 0 20.39-3.883 28.156-11.648 15.519-15.519 15.519-40.78 0-56.31Zm-28.156 53.49c-13.614 0-24.7-11.085-24.7-24.7 0-6.016 2.155-11.533 5.736-15.842l-3.019-3.018a2.23 2.23 0 0 1 0-3.144c.864-.874 2.27-.864 3.144 0l3.018 3.019c3.747-3.133 8.462-5.194 13.604-5.631v-2.04h-2.04a3.31 3.31 0 0 1-3.29-3.29v-1.717a3.296 3.296 0 0 1 3.29-3.29h8.535c1.8 0 3.29 1.468 3.29 3.29v1.717a3.31 3.31 0 0 1-3.29 3.29h-2.04v2.04c5.152.447 9.857 2.508 13.604 5.63l3.019-3.018a2.23 2.23 0 0 1 3.143 0 2.23 2.23 0 0 1 0 3.144l-3.019 3.018c3.581 4.31 5.736 9.815 5.736 15.842 0 13.615-11.086 24.7-24.7 24.7h-.02Z"/></symbol><symbol viewBox="0 0 16 16" id="Twitter" xmlns="http://www.w3.org/2000/svg"><path d="M13.312 5.539v.374C13.312 9.68 10.559 14 5.52 14a7.416 7.416 0 0 1-4.188-1.291 5.366 5.366 0 0 0 4.054-1.171 2.66 2.66 0 0 1-1.587-.56 2.83 2.83 0 0 1-.971-1.42c.17.037.344.056.519.056.243 0 .486-.034.72-.101a2.712 2.712 0 0 1-1.578-.985 2.901 2.901 0 0 1-.616-1.803v-.037c.38.22.805.34 1.24.351a2.823 2.823 0 0 1-1.15-1.705c-.16-.7-.057-1.436.288-2.06a7.84 7.84 0 0 0 2.52 2.11c.974.513 2.04.806 3.13.862a2.475 2.475 0 0 1-.075-.651c-.02-.58.132-1.154.437-1.64a2.746 2.746 0 0 1 1.264-1.083 2.626 2.626 0 0 1 1.635-.132 2.702 2.702 0 0 1 1.41.868 5.494 5.494 0 0 0 1.74-.693c-.204.67-.639 1.24-1.221 1.598a5.559 5.559 0 0 0 1.575-.471 5.741 5.741 0 0 1-1.355 1.497Z"/></symbol><symbol viewBox="0 0 16 16" id="VK" xmlns="http://www.w3.org/2000/svg"><path fill-rule="evenodd" clip-rule="evenodd" d="M1.311 4.54a.317.317 0 0 1 .261-.14h2.212c.124 0 .237.075.29.193.135.298.266.599.395.897.3.69.593 1.365.908 1.938.223.406.446.738.673.974.096.1.19.18.28.239V5.82l-.662-.867a.356.356 0 0 1-.04-.36.321.321 0 0 1 .29-.194h3.075c.178 0 .322.152.322.34v3.187c.368-.383.655-.82.918-1.288.151-.27.292-.545.435-.827l.106-.205c.18-.35.368-.709.584-1.054a.318.318 0 0 1 .268-.153h2.119c.1 0 .194.049.255.133a.356.356 0 0 1 .056.294c-.405 1.623-1.195 2.756-1.948 3.837l-.089.128c1.022.967 1.841 2.15 2.403 3.476a.357.357 0 0 1-.024.324.318.318 0 0 1-.27.155h-2.33a.312.312 0 0 1-.211-.082 6.944 6.944 0 0 1-.654-.706l-.117-.142a10.433 10.433 0 0 0-.453-.526c-.298-.315-.618-.572-1.048-.717v1.833c0 .171-.12.316-.282.337-2.614.351-4.372-1.007-5.556-2.747-1.138-1.671-1.773-3.73-2.174-5.032l-.037-.12a.356.356 0 0 1 .045-.305Zm.705.54C2.42 6.378 3.013 8.15 4 9.6c1.049 1.54 2.517 2.682 4.671 2.5v-1.953c0-.099.04-.193.112-.258a.31.31 0 0 1 .258-.078c.808.13 1.34.536 1.778 1 .172.182.334.379.488.567l.11.132c.165.198.327.386.503.557h1.696a9.58 9.58 0 0 0-2.239-2.962.354.354 0 0 1-.053-.46c.088-.13.177-.256.264-.383.682-.98 1.332-1.914 1.726-3.182h-1.512c-.162.274-.312.558-.462.851l-.102.2c-.144.282-.292.572-.45.855-.396.704-.874 1.395-1.608 1.948a.307.307 0 0 1-.335.025.343.343 0 0 1-.174-.302V5.08H6.593l.31.406c.046.06.071.136.071.214v3.42a.35.35 0 0 1-.108.254.31.31 0 0 1-.25.084c-.395-.049-.731-.273-1.017-.57-.287-.298-.543-.69-.779-1.118-.331-.603-.645-1.326-.952-2.031-.096-.223-.192-.444-.288-.659H2.016Z"/><path d="M4 9.6c-.987-1.45-1.58-3.222-1.984-4.52H3.58c.096.215.192.436.288.659.307.705.62 1.428.952 2.03.236.43.492.821.779 1.119.286.297.622.521 1.016.57a.31.31 0 0 0 .251-.084.35.35 0 0 0 .108-.254V5.7a.353.353 0 0 0-.071-.214l-.31-.406H8.67v3.577c0 .127.067.244.174.302a.307.307 0 0 0 .335-.025c.734-.553 1.212-1.244 1.607-1.948.159-.283.307-.573.45-.856l.103-.199c.15-.293.3-.577.462-.85h1.512c-.394 1.267-1.044 2.201-1.726 3.181a86.83 86.83 0 0 0-.264.382.354.354 0 0 0 .053.46 9.58 9.58 0 0 1 2.239 2.963H11.92a7.05 7.05 0 0 1-.503-.557 35.681 35.681 0 0 1-.11-.132 11.327 11.327 0 0 0-.488-.567c-.438-.464-.97-.87-1.778-1a.31.31 0 0 0-.258.078.349.349 0 0 0-.112.258V12.1c-2.154.182-3.622-.96-4.671-2.5Z"/></symbol><symbol viewBox="0 0 100 100" id="World" xmlns="http://www.w3.org/2000/svg"><path d="M.547 50.461C.547 23.14 22.78.906 50.102.906c27.323 0 49.556 22.233 49.556 49.555 0 27.323-22.233 49.556-49.556 49.556C22.78 100.017.547 77.784.547 50.461Zm95.54 0c0-25.355-20.63-45.985-45.985-45.985S4.117 25.106 4.117 50.46c0 25.356 20.63 45.986 45.985 45.986 25.356 0 45.986-20.63 45.986-45.986Z"/><path d="M98.143 49.264H76.441v4.278h21.702v-4.278ZM23.42 49.264H1.72v4.278H23.42v-4.278ZM52.41 78.242h-4.277v21.702h4.278V78.242ZM52.41 2.863h-4.277v21.701h4.278V2.863Z"/><path d="M75.786 24.252c-14.843-14.843-38.918-14.843-53.771 0-14.843 14.843-14.843 38.918 0 53.771 14.842 14.843 38.918 14.843 53.77 0 14.844-14.842 14.844-38.918 0-53.77Zm-19.537 3.216a24.787 24.787 0 0 1 11.23 7.266l.584.655-.854.198c-2.259.531-4.673.968-7.172 1.29l-.447.063-.125-.437a32.85 32.85 0 0 0-1.468-4.07c-.697-1.592-1.478-2.987-2.331-4.163l-.937-1.28 1.52.468v.01ZM38.877 49.951l.02-.541c.105-3.29.469-6.433 1.093-9.326l.094-.458.468.041a94.965 94.965 0 0 0 16.769-.052l.468-.041.104.458c.635 2.925 1 6.078 1.093 9.378v.541H38.877Zm20.11 2.415v.541c-.115 3.3-.48 6.454-1.114 9.378l-.105.458-.468-.041c-5.444-.51-11.293-.52-16.768-.052l-.469.041-.093-.458c-.625-2.893-.99-6.026-1.093-9.326l-.021-.541h20.13ZM48.93 26.563c3.03 0 6.11 3.84 8.036 10.034l.198.624-.656.052a92.817 92.817 0 0 1-15.176.042l-.656-.052.198-.635c1.926-6.214 5.017-10.076 8.056-10.076v.01ZM30.28 34.848a24.809 24.809 0 0 1 11.335-7.37l1.53-.468-.947 1.291c-.853 1.166-1.645 2.571-2.331 4.153a33.593 33.593 0 0 0-1.489 4.143l-.125.427-.447-.053a70.813 70.813 0 0 1-7.245-1.259l-.864-.198.583-.666ZM24.201 49.39a24.852 24.852 0 0 1 3.767-11.46l.209-.323.374.094a71.857 71.857 0 0 0 8.556 1.603l.562.073-.114.562c-.625 3.018-.979 6.214-1.072 9.503v.51H24.169l.042-.562h-.01Zm3.976 15.321-.209-.322a24.812 24.812 0 0 1-3.767-11.46l-.042-.562h12.303v.51c.104 3.289.468 6.495 1.082 9.503l.115.562-.562.073a72.233 72.233 0 0 0-8.556 1.603l-.375.093h.01ZM41.614 74.85a24.808 24.808 0 0 1-11.335-7.37l-.583-.666.864-.198c2.29-.52 4.726-.947 7.245-1.26l.447-.051.125.427a33.6 33.6 0 0 0 1.489 4.142c.697 1.593 1.478 2.987 2.331 4.164l.947 1.29-1.53-.468v-.01Zm7.318.905c-3.04 0-6.131-3.862-8.057-10.076l-.198-.634.656-.052a93.49 93.49 0 0 1 15.176.041l.656.052-.198.625c-1.936 6.183-5.017 10.034-8.035 10.034v.01Zm18.548-8.17a24.842 24.842 0 0 1-11.231 7.264l-1.52.469.937-1.28c.853-1.166 1.634-2.571 2.331-4.164a35.326 35.326 0 0 0 1.468-4.07l.125-.437.447.063c2.499.322 4.913.76 7.172 1.29l.853.209-.582.655Zm6.172-14.656a24.79 24.79 0 0 1-3.84 11.585l-.209.322-.375-.093c-2.633-.698-5.495-1.25-8.493-1.655l-.562-.073.114-.552c.625-3.018.99-6.235 1.083-9.576v-.51h12.313l-.041.562.01-.01ZM61.391 49.95v-.51c-.105-3.341-.469-6.568-1.093-9.576l-.115-.552.562-.072c2.998-.406 5.85-.958 8.494-1.655l.374-.094.209.323a24.638 24.638 0 0 1 3.84 11.584l.042.563H61.401l-.01-.01Z"/></symbol><symbol viewBox="0 0 16 16" id="YouTube" xmlns="http://www.w3.org/2000/svg"><path d="m6.667 10 3.46-2-3.46-2v4Zm7.706-5.22c.087.313.147.733.187 1.267.047.533.067.993.067 1.393l.04.56c0 1.46-.107 2.533-.294 3.22-.166.6-.553.987-1.153 1.153-.313.087-.887.147-1.767.187-.866.047-1.66.067-2.393.067l-1.06.04c-2.793 0-4.533-.107-5.22-.294-.6-.166-.987-.553-1.153-1.153-.087-.313-.147-.733-.187-1.267a16.039 16.039 0 0 1-.067-1.393L1.333 8c0-1.46.107-2.533.294-3.22.166-.6.553-.987 1.153-1.153.313-.087.887-.147 1.767-.187a44.43 44.43 0 0 1 2.393-.067L8 3.333c2.793 0 4.533.107 5.22.294.6.166.987.553 1.153 1.153Z"/></symbol></svg>